<mxfile host="app.diagrams.net" agent="Mozilla/5.0 (Windows NT 10.0; Win64; x64) AppleWebKit/537.36 (KHTML, like Gecko) Chrome/133.0.0.0 Safari/537.36 Edg/133.0.0.0" version="26.0.12">
  <diagram name="Página-1" id="JwfxMU_BXFs6GaLVffAk">
    <mxGraphModel dx="1603" dy="869" grid="1" gridSize="10" guides="1" tooltips="1" connect="1" arrows="1" fold="1" page="1" pageScale="1" pageWidth="850" pageHeight="1100" math="0" shadow="0">
      <root>
        <mxCell id="0" />
        <mxCell id="1" parent="0" />
        <mxCell id="w76SW74A-f2iMyCX6FlD-3" value="" style="edgeStyle=orthogonalEdgeStyle;rounded=0;orthogonalLoop=1;jettySize=auto;html=1;" edge="1" parent="1" source="w76SW74A-f2iMyCX6FlD-1" target="w76SW74A-f2iMyCX6FlD-2">
          <mxGeometry relative="1" as="geometry" />
        </mxCell>
        <mxCell id="w76SW74A-f2iMyCX6FlD-1" value="Inicio" style="strokeWidth=2;html=1;shape=mxgraph.flowchart.start_1;whiteSpace=wrap;" vertex="1" parent="1">
          <mxGeometry x="160" y="20" width="200" height="60" as="geometry" />
        </mxCell>
        <mxCell id="w76SW74A-f2iMyCX6FlD-14" value="" style="edgeStyle=orthogonalEdgeStyle;rounded=0;orthogonalLoop=1;jettySize=auto;html=1;" edge="1" parent="1" source="w76SW74A-f2iMyCX6FlD-2" target="w76SW74A-f2iMyCX6FlD-13">
          <mxGeometry relative="1" as="geometry" />
        </mxCell>
        <mxCell id="w76SW74A-f2iMyCX6FlD-2" value="Ingresa el ancho del rectángulo" style="strokeWidth=2;html=1;shape=mxgraph.flowchart.document2;whiteSpace=wrap;size=0.25;" vertex="1" parent="1">
          <mxGeometry x="160" y="120" width="200" height="70" as="geometry" />
        </mxCell>
        <mxCell id="w76SW74A-f2iMyCX6FlD-16" value="" style="edgeStyle=orthogonalEdgeStyle;rounded=0;orthogonalLoop=1;jettySize=auto;html=1;" edge="1" parent="1" source="w76SW74A-f2iMyCX6FlD-13" target="w76SW74A-f2iMyCX6FlD-15">
          <mxGeometry relative="1" as="geometry" />
        </mxCell>
        <mxCell id="w76SW74A-f2iMyCX6FlD-13" value="Leer Ancho" style="shape=parallelogram;html=1;strokeWidth=2;perimeter=parallelogramPerimeter;whiteSpace=wrap;rounded=1;arcSize=0;size=0.11249999999999999;" vertex="1" parent="1">
          <mxGeometry x="160" y="230" width="200" height="50" as="geometry" />
        </mxCell>
        <mxCell id="w76SW74A-f2iMyCX6FlD-18" value="" style="edgeStyle=orthogonalEdgeStyle;rounded=0;orthogonalLoop=1;jettySize=auto;html=1;" edge="1" parent="1" source="w76SW74A-f2iMyCX6FlD-15" target="w76SW74A-f2iMyCX6FlD-17">
          <mxGeometry relative="1" as="geometry" />
        </mxCell>
        <mxCell id="w76SW74A-f2iMyCX6FlD-15" value="Ingresa la altura del rectángulo" style="strokeWidth=2;html=1;shape=mxgraph.flowchart.document2;whiteSpace=wrap;size=0.25;" vertex="1" parent="1">
          <mxGeometry x="160" y="330" width="200" height="70" as="geometry" />
        </mxCell>
        <mxCell id="w76SW74A-f2iMyCX6FlD-20" value="" style="edgeStyle=orthogonalEdgeStyle;rounded=0;orthogonalLoop=1;jettySize=auto;html=1;" edge="1" parent="1" source="w76SW74A-f2iMyCX6FlD-17" target="w76SW74A-f2iMyCX6FlD-19">
          <mxGeometry relative="1" as="geometry" />
        </mxCell>
        <mxCell id="w76SW74A-f2iMyCX6FlD-17" value="Leer Altura" style="shape=parallelogram;html=1;strokeWidth=2;perimeter=parallelogramPerimeter;whiteSpace=wrap;rounded=1;arcSize=0;size=0.11249999999999999;" vertex="1" parent="1">
          <mxGeometry x="160" y="440" width="200" height="60" as="geometry" />
        </mxCell>
        <mxCell id="w76SW74A-f2iMyCX6FlD-22" value="" style="edgeStyle=orthogonalEdgeStyle;rounded=0;orthogonalLoop=1;jettySize=auto;html=1;" edge="1" parent="1" source="w76SW74A-f2iMyCX6FlD-19" target="w76SW74A-f2iMyCX6FlD-21">
          <mxGeometry relative="1" as="geometry" />
        </mxCell>
        <mxCell id="w76SW74A-f2iMyCX6FlD-19" value="Perimetro = 2*(Ancho+Altura)" style="rounded=1;whiteSpace=wrap;html=1;absoluteArcSize=1;arcSize=0;strokeWidth=2;" vertex="1" parent="1">
          <mxGeometry x="140" y="540" width="240" height="60" as="geometry" />
        </mxCell>
        <mxCell id="w76SW74A-f2iMyCX6FlD-24" value="" style="edgeStyle=orthogonalEdgeStyle;rounded=0;orthogonalLoop=1;jettySize=auto;html=1;" edge="1" parent="1" source="w76SW74A-f2iMyCX6FlD-21" target="w76SW74A-f2iMyCX6FlD-23">
          <mxGeometry relative="1" as="geometry" />
        </mxCell>
        <mxCell id="w76SW74A-f2iMyCX6FlD-21" value="Area = (Ancho*Altura) / 2" style="rounded=1;whiteSpace=wrap;html=1;absoluteArcSize=1;arcSize=0;strokeWidth=2;" vertex="1" parent="1">
          <mxGeometry x="160" y="630" width="200" height="60" as="geometry" />
        </mxCell>
        <mxCell id="w76SW74A-f2iMyCX6FlD-26" value="" style="edgeStyle=orthogonalEdgeStyle;rounded=0;orthogonalLoop=1;jettySize=auto;html=1;" edge="1" parent="1" source="w76SW74A-f2iMyCX6FlD-23" target="w76SW74A-f2iMyCX6FlD-25">
          <mxGeometry relative="1" as="geometry" />
        </mxCell>
        <mxCell id="w76SW74A-f2iMyCX6FlD-23" value="El area es, &quot;Area&quot; y el Perimetro es, &quot;Perimetro&quot;" style="strokeWidth=2;html=1;shape=mxgraph.flowchart.document2;whiteSpace=wrap;size=0.25;" vertex="1" parent="1">
          <mxGeometry x="160" y="720" width="200" height="70" as="geometry" />
        </mxCell>
        <mxCell id="w76SW74A-f2iMyCX6FlD-25" value="Fin" style="strokeWidth=2;html=1;shape=mxgraph.flowchart.start_1;whiteSpace=wrap;" vertex="1" parent="1">
          <mxGeometry x="160" y="820" width="200" height="60" as="geometry" />
        </mxCell>
      </root>
    </mxGraphModel>
  </diagram>
</mxfile>
